<svg version="1.1" id="Layer_1" xmlns="http://www.w3.org/2000/svg" xmlns:xlink="http://www.w3.org/1999/xlink" x="0px" y="0px"
	 width="100%" viewBox="0 0 1024 1024" enable-background="new 0 0 1024 1024" xml:space="preserve">
<path fill="#131313" opacity="0" stroke="none" 
	d="
M676.000000,1025.000000 
	C450.666656,1025.000000 225.833328,1025.000000 1.000000,1025.000000 
	C1.000000,683.666687 1.000000,342.333344 1.000000,1.000000 
	C342.333344,1.000000 683.666687,1.000000 1025.000000,1.000000 
	C1025.000000,342.333344 1025.000000,683.666687 1025.000000,1025.000000 
	C908.833313,1025.000000 792.666687,1025.000000 676.000000,1025.000000 
M391.026031,549.401489 
	C392.854706,549.462402 394.683411,549.576477 396.512085,549.576538 
	C447.498627,549.578247 498.485199,549.570129 549.471741,549.559753 
	C576.630920,549.554199 603.790039,549.525208 630.949219,549.542725 
	C638.035767,549.547302 644.736694,548.288086 649.373535,542.433960 
	C656.664490,533.229065 657.384705,522.739441 653.053162,512.289368 
	C649.035583,502.596802 640.631592,499.019714 630.456848,499.020935 
	C553.308411,499.030243 476.159149,499.226196 399.011993,498.910492 
	C363.802155,498.766418 336.413269,483.014862 317.916809,453.339325 
	C285.311676,401.027924 312.205078,332.509430 371.844452,313.875458 
	C386.338196,309.346954 401.085968,309.793732 415.882538,309.790863 
	C508.359680,309.772949 600.836792,309.761475 693.313965,309.797211 
	C712.625305,309.804657 730.626648,305.593964 746.285278,293.747437 
	C757.771484,285.057526 765.411499,273.707794 769.594421,259.255737 
	C767.438538,259.255737 765.818298,259.255737 764.198059,259.255737 
	C642.727417,259.255981 521.256714,259.255524 399.786072,259.256775 
	C325.776825,259.257507 262.277283,314.351471 253.912582,387.744904 
	C247.179184,446.825256 270.956848,492.856995 319.349670,526.312317 
	C339.554321,540.280334 362.497498,547.475464 387.233856,550.034546 
	C388.192413,549.866760 389.150970,549.698975 391.026031,549.401489 
M660.809387,669.003723 
	C665.581726,668.352783 670.386658,667.881653 675.121643,667.024231 
	C757.193115,652.162231 810.231079,573.585083 792.940735,491.983948 
	C778.950195,425.956451 719.869385,375.969513 648.517456,375.186066 
	C616.693298,374.836639 584.862183,375.132019 553.034180,375.129150 
	C509.208221,375.125153 465.382233,375.091400 421.556305,375.121765 
	C405.903290,375.132629 396.196228,384.805359 395.693115,399.400177 
	C395.079834,417.191376 407.030670,426.198273 421.450348,426.149689 
	C496.937012,425.895294 572.424988,426.006470 647.912476,426.027252 
	C704.032593,426.042725 748.671997,473.793823 744.961609,529.781250 
	C741.747925,578.273438 699.419250,618.294800 650.352112,618.508789 
	C584.864746,618.794312 519.374939,618.635742 453.886780,618.457764 
	C448.137817,618.442200 443.219086,619.747437 438.300507,622.517822 
	C414.534851,635.903870 390.701294,649.170227 366.837219,662.380432 
	C357.363342,667.624878 347.748322,672.614380 337.562805,678.059204 
	C344.467560,656.404053 351.102661,635.594604 358.187775,613.373657 
	C350.693756,613.239258 344.479370,613.044983 338.264587,613.030762 
	C312.261932,612.971375 293.490051,627.575500 287.099365,652.761230 
	C277.164673,691.913696 267.219421,731.063416 257.305878,770.221252 
	C256.631714,772.884094 256.184753,775.604431 255.385345,779.500793 
	C258.040009,778.214050 259.643036,777.517761 261.171478,776.684631 
	C321.464630,743.820251 381.752533,710.946289 442.036530,678.065186 
	C451.049133,673.149292 460.390137,669.591064 470.905396,669.620544 
	C499.899628,669.701538 528.894287,669.617737 557.888794,669.577271 
	C590.544128,669.531616 623.199524,669.462158 656.245483,670.118835 
	C657.533508,669.839050 658.821533,669.559265 660.809387,669.003723 
z"/>
<path fill="#FDFDFD" opacity="1.000000" stroke="none" 
	d="
M655.854858,669.403076 
	C623.199524,669.462158 590.544128,669.531616 557.888794,669.577271 
	C528.894287,669.617737 499.899628,669.701538 470.905396,669.620544 
	C460.390137,669.591064 451.049133,673.149292 442.036530,678.065186 
	C381.752533,710.946289 321.464630,743.820251 261.171478,776.684631 
	C259.643036,777.517761 258.040009,778.214050 255.385345,779.500793 
	C256.184753,775.604431 256.631714,772.884094 257.305878,770.221252 
	C267.219421,731.063416 277.164673,691.913696 287.099365,652.761230 
	C293.490051,627.575500 312.261932,612.971375 338.264587,613.030762 
	C344.479370,613.044983 350.693756,613.239258 358.187775,613.373657 
	C351.102661,635.594604 344.467560,656.404053 337.562805,678.059204 
	C347.748322,672.614380 357.363342,667.624878 366.837219,662.380432 
	C390.701294,649.170227 414.534851,635.903870 438.300507,622.517822 
	C443.219086,619.747437 448.137817,618.442200 453.886780,618.457764 
	C519.374939,618.635742 584.864746,618.794312 650.352112,618.508789 
	C699.419250,618.294800 741.747925,578.273438 744.961609,529.781250 
	C748.671997,473.793823 704.032593,426.042725 647.912476,426.027252 
	C572.424988,426.006470 496.937012,425.895294 421.450348,426.149689 
	C407.030670,426.198273 395.079834,417.191376 395.693115,399.400177 
	C396.196228,384.805359 405.903290,375.132629 421.556305,375.121765 
	C465.382233,375.091400 509.208221,375.125153 553.034180,375.129150 
	C584.862183,375.132019 616.693298,374.836639 648.517456,375.186066 
	C719.869385,375.969513 778.950195,425.956451 792.940735,491.983948 
	C810.231079,573.585083 757.193115,652.162231 675.121643,667.024231 
	C670.386658,667.881653 665.581726,668.352783 660.035034,669.078979 
	C658.125427,669.237244 656.990112,669.320190 655.854858,669.403076 
z"/>
<path fill="#FCFCFC" opacity="1.000000" stroke="none" 
	d="
M387.020294,549.431885 
	C362.497498,547.475464 339.554321,540.280334 319.349670,526.312317 
	C270.956848,492.856995 247.179184,446.825256 253.912582,387.744904 
	C262.277283,314.351471 325.776825,259.257507 399.786072,259.256775 
	C521.256714,259.255524 642.727417,259.255981 764.198059,259.255737 
	C765.818298,259.255737 767.438538,259.255737 769.594421,259.255737 
	C765.411499,273.707794 757.771484,285.057526 746.285278,293.747437 
	C730.626648,305.593964 712.625305,309.804657 693.313965,309.797211 
	C600.836792,309.761475 508.359680,309.772949 415.882538,309.790863 
	C401.085968,309.793732 386.338196,309.346954 371.844452,313.875458 
	C312.205078,332.509430 285.311676,401.027924 317.916809,453.339325 
	C336.413269,483.014862 363.802155,498.766418 399.011993,498.910492 
	C476.159149,499.226196 553.308411,499.030243 630.456848,499.020935 
	C640.631592,499.019714 649.035583,502.596802 653.053162,512.289368 
	C657.384705,522.739441 656.664490,533.229065 649.373535,542.433960 
	C644.736694,548.288086 638.035767,549.547302 630.949219,549.542725 
	C603.790039,549.525208 576.630920,549.554199 549.471741,549.559753 
	C498.485199,549.570129 447.498627,549.578247 396.512085,549.576538 
	C394.683411,549.576477 392.854706,549.462402 390.277039,549.343872 
	C388.692139,549.334778 387.856232,549.383301 387.020294,549.431885 
z"/>
<path fill="#040404" opacity="1.000000" stroke="none" 
	d="
M387.127075,549.733215 
	C387.856232,549.383301 388.692139,549.334778 389.818787,549.408691 
	C389.150970,549.698975 388.192413,549.866760 387.127075,549.733215 
z"/>
<path fill="#050506" opacity="1.000000" stroke="none" 
	d="
M656.050171,669.760986 
	C656.990112,669.320190 658.125427,669.237244 659.685120,669.216919 
	C658.821533,669.559265 657.533508,669.839050 656.050171,669.760986 
z"/>
</svg>