<svg version="1.1" id="Layer_1" xmlns="http://www.w3.org/2000/svg" xmlns:xlink="http://www.w3.org/1999/xlink" x="0px" y="0px"
	 width="100%" viewBox="0 0 1024 1024" enable-background="new 0 0 1024 1024" xml:space="preserve">
<path fill="#131112" opacity="1.000000" stroke="none" 
	d="
M455.000000,1025.000000 
	C303.333344,1025.000000 152.166672,1025.000000 1.000000,1025.000000 
	C1.000000,683.666687 1.000000,342.333344 1.000000,1.000000 
	C342.333344,1.000000 683.666687,1.000000 1025.000000,1.000000 
	C1025.000000,342.333344 1025.000000,683.666687 1025.000000,1025.000000 
	C835.166687,1025.000000 645.333313,1025.000000 455.000000,1025.000000 
M723.354187,516.241150 
	C723.531982,516.527466 723.709717,516.813721 723.887512,517.099976 
	C723.905518,516.701538 723.923523,516.303040 724.423828,516.281616 
	C724.446289,515.964844 724.468811,515.648010 724.491272,515.331238 
	C724.333862,515.561951 724.176453,515.792664 723.354187,516.241150 
M721.101807,518.557434 
	C720.879333,518.790527 720.673584,519.037476 720.100037,519.542542 
	C719.885986,519.758240 719.688354,519.987915 719.099060,520.488098 
	C718.886902,520.728882 718.685730,520.978577 718.089600,521.503357 
	C717.880859,521.750000 717.676025,521.999878 716.928589,522.768982 
	C716.914856,523.128235 716.901184,523.487427 716.887451,523.846680 
	C717.284668,523.589111 717.681885,523.331604 718.574707,522.951782 
	C718.763550,522.680603 718.952393,522.409424 719.634399,522.000305 
	C719.810913,521.720093 719.987488,521.439880 720.644531,520.994812 
	C720.813660,520.712463 720.982788,520.430115 721.641052,519.986328 
	C721.798706,519.692444 721.956299,519.398560 722.707275,518.828186 
	C722.680542,518.443237 722.653870,518.058289 722.627197,517.673340 
	C722.252441,517.878235 721.877686,518.083191 721.101807,518.557434 
M315.915161,528.379089 
	C315.465454,528.056213 315.015717,527.733337 314.118683,526.926819 
	C310.246643,523.071594 306.374603,519.216309 302.046600,514.843689 
	C301.692688,514.963013 301.338745,515.082336 300.984802,515.201599 
	C301.261444,515.528137 301.538055,515.854614 302.020996,516.822388 
	C305.970398,520.596985 309.919800,524.371643 314.108185,528.666260 
	C314.596069,528.957642 315.083954,529.249023 315.802612,529.858093 
	C316.198273,529.879639 316.593933,529.901123 316.989594,529.922607 
	C316.685699,529.585388 316.381836,529.248230 315.915161,528.379089 
M714.160522,525.029724 
	C710.675720,527.493835 707.190979,529.957886 703.706238,532.421997 
	C703.979797,532.814697 704.253418,533.207336 704.527039,533.600037 
	C708.279114,530.889038 712.031250,528.177979 716.298950,524.989685 
	C716.130249,524.636414 715.961609,524.283081 715.792908,523.929810 
	C715.463257,524.220093 715.133667,524.510376 714.160522,525.029724 
M414.834045,413.327667 
	C382.675140,401.339050 359.403107,402.414978 341.605164,409.500092 
	C343.342682,409.371063 343.906464,409.372192 344.455322,409.282257 
	C376.597137,404.014160 405.120819,412.442169 430.450714,432.350464 
	C446.157867,444.695679 458.604919,460.170074 470.991974,475.678131 
	C493.746002,504.165253 515.886292,533.183533 539.600525,560.850647 
	C560.955078,585.764709 587.354431,604.379456 619.331421,613.577393 
	C668.516602,627.725220 714.739441,621.247742 756.391663,590.809326 
	C821.278931,543.391541 828.656799,455.272369 786.090515,397.971954 
	C750.104797,349.530029 699.726746,332.525330 641.462219,337.693695 
	C591.080505,342.162720 551.697144,367.586578 520.524048,407.178162 
	C535.386414,425.281281 550.192871,443.316254 564.072449,460.222260 
	C574.481812,449.993988 583.877197,439.022919 594.976868,430.194427 
	C623.698181,407.349976 656.208923,396.594025 693.272461,402.973755 
	C725.640442,408.545197 751.061035,434.258911 755.556946,466.142303 
	C760.064575,498.108582 743.454102,528.400879 713.445129,542.966125 
	C712.463806,543.442444 711.543213,544.043884 710.407959,544.693604 
	C716.071960,555.492981 722.701050,565.042175 734.208984,572.236206 
	C715.030273,572.316162 698.936401,567.368713 684.235474,557.419678 
	C682.327393,556.128296 679.424805,555.331787 677.181641,555.660889 
	C655.085510,558.902161 634.150024,555.384705 614.243652,545.441650 
	C612.088196,544.364990 610.160645,542.832031 608.127441,541.510681 
	C608.339905,541.077026 608.552429,540.643372 608.764893,540.209717 
	C622.665405,545.653748 636.686829,550.467590 651.951843,549.070618 
	C650.718994,547.864380 649.268677,547.518677 647.835693,547.111938 
	C643.200989,545.796753 638.455139,544.770996 633.961182,543.078735 
	C608.281128,533.408752 588.081726,516.349060 571.199707,495.226807 
	C547.601807,465.701813 524.606262,435.694458 500.928711,406.234467 
	C485.350311,386.851562 466.886780,370.581512 444.577850,359.172760 
	C415.171600,344.134460 383.818451,338.691803 351.143768,342.275116 
	C316.864349,346.034332 286.369537,359.347076 261.567993,383.431976 
	C231.675339,412.460785 217.618088,448.336975 220.039810,490.157288 
	C222.243393,528.210571 237.914169,560.071167 265.873779,585.774841 
	C280.597534,599.310547 297.657349,609.183472 316.995117,615.465576 
	C312.297882,627.312378 307.652222,639.029175 303.004486,650.751160 
	C303.331940,650.853943 303.663574,651.078247 303.950195,651.030762 
	C326.754242,647.256836 347.960938,639.511353 366.826355,625.861450 
	C368.338806,624.767151 370.266663,623.831970 372.084900,623.648193 
	C379.354736,622.913330 386.721375,622.946411 393.937836,621.903809 
	C442.795776,614.845032 480.196472,589.186646 509.821655,550.254089 
	C495.697418,532.314758 481.736206,514.582458 467.807922,496.891998 
	C446.658936,521.538147 422.071014,540.293945 390.758148,548.791199 
	C366.172150,555.463013 341.559601,555.880127 318.008606,544.883484 
	C290.382812,531.984192 273.684143,510.348053 271.674438,479.544617 
	C269.894043,452.256500 281.512817,430.331055 303.373383,414.208710 
	C336.875427,389.500671 386.502319,392.950104 416.067444,412.963074 
	C415.892609,413.148834 415.717804,413.334564 414.834045,413.327667 
M671.307739,482.544342 
	C674.318542,475.603363 673.374451,469.980072 668.496643,465.800171 
	C664.400818,462.290497 658.640015,461.782043 654.096191,464.590118 
	C649.331238,467.534882 647.543152,472.014130 648.029480,477.380402 
	C648.493530,482.500916 651.344666,486.059570 656.225708,487.653290 
	C662.065186,489.559967 667.025085,488.008453 671.307739,482.544342 
M611.184143,464.346252 
	C603.688965,469.677979 602.497681,479.742737 608.723083,485.139252 
	C613.564087,489.335815 620.558105,489.407806 625.612671,485.313080 
	C630.014221,481.747406 631.149170,474.781799 628.189941,469.494568 
	C624.997253,463.790039 618.974121,461.767029 611.184143,464.346252 
M315.910583,479.553070 
	C318.084167,485.672180 322.666565,489.213165 328.308472,489.133362 
	C333.593201,489.058594 338.586426,485.511810 340.073578,480.704681 
	C341.704315,475.433411 340.481476,470.806030 336.484772,467.079437 
	C332.597382,463.454742 326.884033,462.858582 322.089355,465.418579 
	C316.707520,468.292023 314.947784,472.959808 315.910583,479.553070 
M703.339233,462.761292 
	C695.375549,463.340149 690.812256,468.109528 690.830322,475.834930 
	C690.846802,482.845337 695.620911,487.838501 702.549622,488.091675 
	C709.218689,488.335358 715.123169,483.157318 715.638916,476.341797 
	C716.075317,470.575836 712.109558,462.948853 703.339233,462.761292 
M419.177155,465.027649 
	C411.146759,462.682220 404.246033,466.095581 402.270630,473.390198 
	C400.376556,480.384521 404.673706,487.307831 411.859894,488.839905 
	C417.462158,490.034241 423.694061,486.923920 425.875366,481.844757 
	C428.531799,475.659241 426.322449,469.564026 419.177155,465.027649 
M383.571503,474.169922 
	C381.063477,466.756165 376.160187,463.182434 369.710785,464.067627 
	C363.994141,464.852234 359.580688,469.593475 359.042633,475.528107 
	C358.382416,482.809998 363.290527,488.678467 370.412384,489.122375 
	C378.566772,489.630676 383.730286,484.160492 383.571503,474.169922 
M699.962708,418.388275 
	C707.264404,422.967468 714.566101,427.546631 720.856812,431.491821 
	C716.644531,424.953522 708.864807,421.110962 701.072083,417.320648 
	C700.689209,417.134460 699.882324,417.819977 699.962708,418.388275 
M702.759888,534.074829 
	C702.850891,533.939758 702.965149,533.814209 703.025085,533.666504 
	C703.068848,533.558594 703.041138,533.421631 703.045288,533.297607 
	C701.788635,533.594116 700.531921,533.890625 698.177063,534.446228 
	C699.835388,534.800232 700.306274,535.008301 700.753845,534.966492 
	C701.213806,534.923584 701.651001,534.636658 702.759888,534.074829 
M299.828644,514.103027 
	C300.130646,513.860779 300.432678,513.618469 300.734711,513.376221 
	C300.233826,513.456543 299.732971,513.536926 299.828644,514.103027 
z"/>
<path fill="#FCFCFC" opacity="1.000000" stroke="none" 
	d="
M416.609589,412.423065 
	C386.502319,392.950104 336.875427,389.500671 303.373383,414.208710 
	C281.512817,430.331055 269.894043,452.256500 271.674438,479.544617 
	C273.684143,510.348053 290.382812,531.984192 318.008606,544.883484 
	C341.559601,555.880127 366.172150,555.463013 390.758148,548.791199 
	C422.071014,540.293945 446.658936,521.538147 467.807922,496.891998 
	C481.736206,514.582458 495.697418,532.314758 509.821655,550.254089 
	C480.196472,589.186646 442.795776,614.845032 393.937836,621.903809 
	C386.721375,622.946411 379.354736,622.913330 372.084900,623.648193 
	C370.266663,623.831970 368.338806,624.767151 366.826355,625.861450 
	C347.960938,639.511353 326.754242,647.256836 303.950195,651.030762 
	C303.663574,651.078247 303.331940,650.853943 303.004486,650.751160 
	C307.652222,639.029175 312.297882,627.312378 316.995117,615.465576 
	C297.657349,609.183472 280.597534,599.310547 265.873779,585.774841 
	C237.914169,560.071167 222.243393,528.210571 220.039810,490.157288 
	C217.618088,448.336975 231.675339,412.460785 261.567993,383.431976 
	C286.369537,359.347076 316.864349,346.034332 351.143768,342.275116 
	C383.818451,338.691803 415.171600,344.134460 444.577850,359.172760 
	C466.886780,370.581512 485.350311,386.851562 500.928711,406.234467 
	C524.606262,435.694458 547.601807,465.701813 571.199707,495.226807 
	C588.081726,516.349060 608.281128,533.408752 633.961182,543.078735 
	C638.455139,544.770996 643.200989,545.796753 647.835693,547.111938 
	C649.268677,547.518677 650.718994,547.864380 651.951843,549.070618 
	C636.686829,550.467590 622.665405,545.653748 608.764893,540.209717 
	C608.552429,540.643372 608.339905,541.077026 608.127441,541.510681 
	C610.160645,542.832031 612.088196,544.364990 614.243652,545.441650 
	C634.150024,555.384705 655.085510,558.902161 677.181641,555.660889 
	C679.424805,555.331787 682.327393,556.128296 684.235474,557.419678 
	C698.936401,567.368713 715.030273,572.316162 734.208984,572.236206 
	C722.701050,565.042175 716.071960,555.492981 710.407959,544.693604 
	C711.543213,544.043884 712.463806,543.442444 713.445129,542.966125 
	C743.454102,528.400879 760.064575,498.108582 755.556946,466.142303 
	C751.061035,434.258911 725.640442,408.545197 693.272461,402.973755 
	C656.208923,396.594025 623.698181,407.349976 594.976868,430.194427 
	C583.877197,439.022919 574.481812,449.993988 564.072449,460.222260 
	C550.192871,443.316254 535.386414,425.281281 520.524048,407.178162 
	C551.697144,367.586578 591.080505,342.162720 641.462219,337.693695 
	C699.726746,332.525330 750.104797,349.530029 786.090515,397.971954 
	C828.656799,455.272369 821.278931,543.391541 756.391663,590.809326 
	C714.739441,621.247742 668.516602,627.725220 619.331421,613.577393 
	C587.354431,604.379456 560.955078,585.764709 539.600525,560.850647 
	C515.886292,533.183533 493.746002,504.165253 470.991974,475.678131 
	C458.604919,460.170074 446.157867,444.695679 430.450714,432.350464 
	C405.120819,412.442169 376.597137,404.014160 344.455322,409.282257 
	C343.906464,409.372192 343.342682,409.371063 341.605164,409.500092 
	C359.403107,402.414978 382.675140,401.339050 415.436890,413.626160 
	C416.636902,413.924652 417.234070,413.924652 418.606384,413.924652 
	C417.531372,413.116241 417.070465,412.769653 416.609589,412.423065 
M607.168396,541.188293 
	C607.554016,541.077271 607.939636,540.966248 608.325256,540.855225 
	C607.993103,540.460693 607.660889,540.066162 606.984741,539.188477 
	C606.423157,539.012390 605.861633,538.836243 604.832581,538.153503 
	C604.000244,538.153503 603.167969,538.153503 601.158203,538.153503 
	C603.039978,538.970947 603.772278,539.289062 604.938965,539.991211 
	C605.461060,540.234924 605.983215,540.478577 607.168396,541.188293 
M265.134003,402.061554 
	C236.005127,437.635864 227.337433,477.548492 242.098969,521.219360 
	C256.740936,564.536499 287.992279,591.258423 331.535522,604.760681 
	C328.020081,613.878845 324.617401,622.704651 320.956665,632.005310 
	C321.036255,632.236206 321.115875,632.467102 321.195526,632.698059 
	C321.530121,632.533203 321.864746,632.368408 322.979431,632.207825 
	C338.452240,627.988770 352.403687,620.870605 364.724884,610.544922 
	C365.993408,609.481812 367.896698,608.604126 369.504303,608.605957 
	C385.961945,608.625000 401.994293,606.025024 417.598145,600.915955 
	C447.578949,591.099426 472.366638,573.574219 493.194855,549.781799 
	C484.221863,538.684326 475.391724,527.763489 466.639923,516.939575 
	C433.705658,551.342957 394.779846,569.557739 346.813538,566.091614 
	C292.987518,562.202148 249.650452,516.483276 249.110306,462.444702 
	C248.893250,440.730835 255.129623,420.809296 267.292511,402.130463 
	C267.400879,401.476288 267.509247,400.822083 267.617615,400.167908 
	C266.985535,400.691437 266.353424,401.214966 265.134003,402.061554 
M792.636719,507.975128 
	C791.633850,513.256226 790.630920,518.537354 789.628052,523.818420 
	C791.381775,522.058044 792.322021,519.936584 793.049500,517.744507 
	C800.091980,496.522522 800.757690,474.805756 796.194397,453.187775 
	C787.813293,413.483429 764.981262,383.939606 729.263367,365.247070 
	C692.837708,346.184082 654.178467,343.848419 614.767273,354.571136 
	C581.838928,363.530090 555.186218,382.389130 532.910706,407.891052 
	C541.896240,417.689362 550.665344,427.251740 559.529114,436.917267 
	C570.948181,423.025146 583.990723,411.020538 598.958862,401.095764 
	C627.467407,382.192902 658.406372,372.282104 692.860474,376.090393 
	C726.655273,379.825806 753.845337,395.403534 773.132629,423.539307 
	C790.393005,448.718384 796.278320,476.885010 792.636719,507.975128 
z"/>
<path fill="#F9F9FA" opacity="1.000000" stroke="none" 
	d="
M671.111450,482.873352 
	C667.025085,488.008453 662.065186,489.559967 656.225708,487.653290 
	C651.344666,486.059570 648.493530,482.500916 648.029480,477.380402 
	C647.543152,472.014130 649.331238,467.534882 654.096191,464.590118 
	C658.640015,461.782043 664.400818,462.290497 668.496643,465.800171 
	C673.374451,469.980072 674.318542,475.603363 671.111450,482.873352 
z"/>
<path fill="#F9F9FA" opacity="1.000000" stroke="none" 
	d="
M611.545166,464.185822 
	C618.974121,461.767029 624.997253,463.790039 628.189941,469.494568 
	C631.149170,474.781799 630.014221,481.747406 625.612671,485.313080 
	C620.558105,489.407806 613.564087,489.335815 608.723083,485.139252 
	C602.497681,479.742737 603.688965,469.677979 611.545166,464.185822 
z"/>
<path fill="#F8F8F9" opacity="1.000000" stroke="none" 
	d="
M315.827698,479.177368 
	C314.947784,472.959808 316.707520,468.292023 322.089355,465.418579 
	C326.884033,462.858582 332.597382,463.454742 336.484772,467.079437 
	C340.481476,470.806030 341.704315,475.433411 340.073578,480.704681 
	C338.586426,485.511810 333.593201,489.058594 328.308472,489.133362 
	C322.666565,489.213165 318.084167,485.672180 315.827698,479.177368 
z"/>
<path fill="#F9F9F9" opacity="1.000000" stroke="none" 
	d="
M703.715942,462.779144 
	C712.109558,462.948853 716.075317,470.575836 715.638916,476.341797 
	C715.123169,483.157318 709.218689,488.335358 702.549622,488.091675 
	C695.620911,487.838501 690.846802,482.845337 690.830322,475.834930 
	C690.812256,468.109528 695.375549,463.340149 703.715942,462.779144 
z"/>
<path fill="#F9F9F9" opacity="1.000000" stroke="none" 
	d="
M419.533783,465.180420 
	C426.322449,469.564026 428.531799,475.659241 425.875366,481.844757 
	C423.694061,486.923920 417.462158,490.034241 411.859894,488.839905 
	C404.673706,487.307831 400.376556,480.384521 402.270630,473.390198 
	C404.246033,466.095581 411.146759,462.682220 419.533783,465.180420 
z"/>
<path fill="#F9F9F9" opacity="1.000000" stroke="none" 
	d="
M383.685120,474.555481 
	C383.730286,484.160492 378.566772,489.630676 370.412384,489.122375 
	C363.290527,488.678467 358.382416,482.809998 359.042633,475.528107 
	C359.580688,469.593475 363.994141,464.852234 369.710785,464.067627 
	C376.160187,463.182434 381.063477,466.756165 383.685120,474.555481 
z"/>
<path fill="#DADADB" opacity="1.000000" stroke="none" 
	d="
M699.617798,418.243958 
	C699.882324,417.819977 700.689209,417.134460 701.072083,417.320648 
	C708.864807,421.110962 716.644531,424.953522 720.856812,431.491821 
	C714.566101,427.546631 707.264404,422.967468 699.617798,418.243958 
z"/>
<path fill="#CAC8C8" opacity="1.000000" stroke="none" 
	d="
M313.869202,528.146240 
	C309.919800,524.371643 305.970398,520.596985 302.094299,516.300537 
	C302.279236,515.639465 302.390930,515.500305 302.502594,515.361084 
	C306.374603,519.216309 310.246643,523.071594 314.164307,527.348938 
	C314.096344,527.896179 313.982758,528.021240 313.869202,528.146240 
z"/>
<path fill="#C9C8C8" opacity="1.000000" stroke="none" 
	d="
M715.783386,525.467041 
	C712.031250,528.177979 708.279114,530.889038 704.527039,533.600037 
	C704.253418,533.207336 703.979797,532.814697 703.706238,532.421997 
	C707.190979,529.957886 710.675720,527.493835 714.720032,525.092163 
	C715.447449,525.258789 715.615417,525.362915 715.783386,525.467041 
z"/>
<path fill="#C9C8C8" opacity="1.000000" stroke="none" 
	d="
M702.429016,534.265686 
	C701.651001,534.636658 701.213806,534.923584 700.753845,534.966492 
	C700.306274,535.008301 699.835388,534.800232 698.177063,534.446228 
	C700.531921,533.890625 701.788635,533.594116 703.045288,533.297607 
	C703.041138,533.421631 703.068848,533.558594 703.025085,533.666504 
	C702.965149,533.814209 702.850891,533.939758 702.429016,534.265686 
z"/>
<path fill="#CAC8C8" opacity="1.000000" stroke="none" 
	d="
M316.077942,528.911011 
	C316.381836,529.248230 316.685699,529.585388 316.989594,529.922607 
	C316.593933,529.901123 316.198273,529.879639 315.813599,529.540955 
	C315.824615,529.223816 316.077942,528.911011 316.077942,528.911011 
z"/>
<path fill="#CAC8C8" opacity="1.000000" stroke="none" 
	d="
M299.530365,513.860107 
	C299.732971,513.536926 300.233826,513.456543 300.734680,513.376221 
	C300.432678,513.618469 300.130646,513.860779 299.530365,513.860107 
z"/>
<path fill="#CAC8C8" opacity="1.000000" stroke="none" 
	d="
M314.387970,527.590759 
	C315.015717,527.733337 315.465454,528.056213 315.996552,528.645020 
	C316.077942,528.911011 315.824615,529.223816 315.698242,529.382080 
	C315.083954,529.249023 314.596069,528.957642 313.988708,528.406250 
	C313.982758,528.021240 314.096344,527.896179 314.387970,527.590759 
z"/>
<path fill="#C9C8C8" opacity="1.000000" stroke="none" 
	d="
M715.041748,524.977661 
	C715.133667,524.510376 715.463257,524.220093 715.792908,523.929810 
	C715.961609,524.283081 716.130249,524.636414 716.041138,525.228394 
	C715.615417,525.362915 715.447449,525.258789 715.041748,524.977661 
z"/>
<path fill="#C9C8C8" opacity="1.000000" stroke="none" 
	d="
M718.079102,523.074036 
	C717.681885,523.331604 717.284668,523.589111 716.887451,523.846680 
	C716.901184,523.487427 716.914856,523.128235 717.339478,522.726318 
	C717.859924,522.813721 717.969543,522.943848 718.079102,523.074036 
z"/>
<path fill="#C9C8C8" opacity="1.000000" stroke="none" 
	d="
M719.141296,522.138306 
	C718.952393,522.409424 718.763550,522.680603 718.326904,523.012939 
	C717.969543,522.943848 717.859924,522.813721 717.612793,522.468262 
	C717.676025,521.999878 717.880859,521.750000 718.440674,521.605103 
	C718.908325,521.850647 719.024780,521.994446 719.141296,522.138306 
z"/>
<path fill="#C9C8C8" opacity="1.000000" stroke="none" 
	d="
M718.643677,521.471924 
	C718.685730,520.978577 718.886902,520.728882 719.453918,520.601379 
	C719.927246,520.863037 720.045654,521.011353 720.164062,521.159729 
	C719.987488,521.439880 719.810913,521.720093 719.387817,522.069336 
	C719.024780,521.994446 718.908325,521.850647 718.643677,521.471924 
z"/>
<path fill="#C9C8C8" opacity="1.000000" stroke="none" 
	d="
M719.657898,520.473145 
	C719.688354,519.987915 719.885986,519.758240 720.448486,519.641357 
	C720.915344,519.876099 721.033630,520.011963 721.151917,520.147827 
	C720.982788,520.430115 720.813660,520.712463 720.404297,521.077271 
	C720.045654,521.011353 719.927246,520.863037 719.657898,520.473145 
z"/>
<path fill="#C9C8C8" opacity="1.000000" stroke="none" 
	d="
M722.113892,519.104675 
	C721.956299,519.398560 721.798706,519.692444 721.396484,520.067078 
	C721.033630,520.011963 720.915344,519.876099 720.640747,519.519287 
	C720.673584,519.037476 720.879333,518.790527 721.446899,518.633057 
	C721.899292,518.840698 722.006592,518.972656 722.113892,519.104675 
z"/>
<path fill="#C9C8C8" opacity="1.000000" stroke="none" 
	d="
M721.647461,518.498413 
	C721.877686,518.083191 722.252441,517.878235 722.627197,517.673340 
	C722.653870,518.058289 722.680542,518.443237 722.410583,518.966431 
	C722.006592,518.972656 721.899292,518.840698 721.647461,518.498413 
z"/>
<path fill="#C9C8C8" opacity="1.000000" stroke="none" 
	d="
M723.941528,515.904602 
	C723.923523,516.303040 723.905518,516.701538 723.887451,517.099976 
	C723.709717,516.813721 723.531982,516.527466 723.665527,516.103638 
	C723.976868,515.966187 723.941528,515.904602 723.941528,515.904602 
z"/>
<path fill="#C9C8C8" opacity="1.000000" stroke="none" 
	d="
M723.997925,515.994751 
	C724.176453,515.792664 724.333862,515.561951 724.491272,515.331238 
	C724.468811,515.648010 724.446289,515.964844 724.182678,516.093140 
	C723.941528,515.904602 723.976868,515.966187 723.997925,515.994751 
z"/>
<path fill="#CAC8C8" opacity="1.000000" stroke="none" 
	d="
M301.991119,515.979858 
	C301.538055,515.854614 301.261444,515.528137 300.984802,515.201599 
	C301.338745,515.082336 301.692688,514.963013 302.274597,515.102417 
	C302.390930,515.500305 302.279236,515.639465 301.991119,515.979858 
z"/>
<path fill="#151414" opacity="1.000000" stroke="none" 
	d="
M321.214691,631.530457 
	C324.617401,622.704651 328.020081,613.878845 331.535522,604.760681 
	C287.992279,591.258423 256.740936,564.536499 242.098969,521.219360 
	C227.337433,477.548492 236.005127,437.635864 265.703186,402.115082 
	C266.463165,402.302338 266.653992,402.436066 266.844849,402.569794 
	C255.129623,420.809296 248.893250,440.730835 249.110306,462.444702 
	C249.650452,516.483276 292.987518,562.202148 346.813538,566.091614 
	C394.779846,569.557739 433.705658,551.342957 466.639923,516.939575 
	C475.391724,527.763489 484.221863,538.684326 493.194855,549.781799 
	C472.366638,573.574219 447.578949,591.099426 417.598145,600.915955 
	C401.994293,606.025024 385.961945,608.625000 369.504303,608.605957 
	C367.896698,608.604126 365.993408,609.481812 364.724884,610.544922 
	C352.403687,620.870605 338.452240,627.988770 322.354706,632.020630 
	C321.558197,631.732422 321.386444,631.631470 321.214691,631.530457 
z"/>
<path fill="#161515" opacity="1.000000" stroke="none" 
	d="
M792.702637,507.539246 
	C796.278320,476.885010 790.393005,448.718384 773.132629,423.539307 
	C753.845337,395.403534 726.655273,379.825806 692.860474,376.090393 
	C658.406372,372.282104 627.467407,382.192902 598.958862,401.095764 
	C583.990723,411.020538 570.948181,423.025146 559.529114,436.917267 
	C550.665344,427.251740 541.896240,417.689362 532.910706,407.891052 
	C555.186218,382.389130 581.838928,363.530090 614.767273,354.571136 
	C654.178467,343.848419 692.837708,346.184082 729.263367,365.247070 
	C764.981262,383.939606 787.813293,413.483429 796.194397,453.187775 
	C800.757690,474.805756 800.091980,496.522522 793.049500,517.744507 
	C792.322021,519.936584 791.381775,522.058044 789.628052,523.818420 
	C790.630920,518.537354 791.633850,513.256226 792.702637,507.539246 
z"/>
<path fill="#151414" opacity="1.000000" stroke="none" 
	d="
M265.996857,401.953552 
	C266.353424,401.214966 266.985535,400.691437 267.617615,400.167908 
	C267.509247,400.822083 267.400879,401.476288 267.068665,402.350128 
	C266.653992,402.436066 266.463165,402.302338 265.996857,401.953552 
z"/>
<path fill="#131112" opacity="1.000000" stroke="none" 
	d="
M604.504578,539.607178 
	C603.772278,539.289062 603.039978,538.970947 601.158203,538.153503 
	C603.167969,538.153503 604.000244,538.153503 604.864014,538.640625 
	C604.765137,539.287598 604.634888,539.447388 604.504578,539.607178 
z"/>
<path fill="#131112" opacity="1.000000" stroke="none" 
	d="
M416.338501,412.693054 
	C417.070465,412.769653 417.531372,413.116241 418.606384,413.924652 
	C417.234070,413.924652 416.636902,413.924652 415.791351,413.722473 
	C415.717804,413.334564 415.892609,413.148834 416.338501,412.693054 
z"/>
<path fill="#131112" opacity="1.000000" stroke="none" 
	d="
M605.097717,538.893921 
	C605.861633,538.836243 606.423157,539.012390 606.944580,539.687805 
	C606.771423,540.365540 606.638367,540.543884 606.505310,540.722290 
	C605.983215,540.478577 605.461060,540.234924 604.721802,539.799194 
	C604.634888,539.447388 604.765137,539.287598 605.097717,538.893921 
z"/>
<path fill="#151414" opacity="1.000000" stroke="none" 
	d="
M321.964661,632.018555 
	C321.864746,632.368408 321.530121,632.533203 321.195496,632.697998 
	C321.115875,632.467102 321.036255,632.236206 321.085693,631.767883 
	C321.386444,631.631470 321.558197,631.732422 321.964661,632.018555 
z"/>
<path fill="#131112" opacity="1.000000" stroke="none" 
	d="
M607.116577,539.929382 
	C607.660889,540.066162 607.993103,540.460693 608.325256,540.855225 
	C607.939636,540.966248 607.554016,541.077271 606.836853,540.955322 
	C606.638367,540.543884 606.771423,540.365540 607.116577,539.929382 
z"/>
</svg>